# xmcd CD database file
#
# Track frame offsets:
#	150
#	14107
#	26682
#	38542
#	50150
#	63825
#	76375
#	88102
#	100870
#	114660
#	127690
#	138110
#	152052
#	163922
#	176597
#	188730
#
# Disc length: 2675 seconds
#
# Revision: 0
# Processed by: cddbd v1.5.1PL0 Copyright (c) Steve Scherf et al.
# Submitted via: CDex 1.51
#
DISCID=cd0a7110
DTITLE=Louis Prima - Prima Di Tutto CD2
DYEAR=2004
DGENRE=Jazz
TTITLE0=Over The Rainbow
TTITLE1=Ai-Ai-Ai
TTITLE2=The Manuelo Tarantel
TTITLE3=Until Sunrise
TTITLE4=I Beeped When I Should Have Bopped
TTITLE5=Charleston
TTITLE6=Enjoy Yourself (It's Later Than You Think)
TTITLE7=Paper Doll
TTITLE8=Yes, We Have No Bananas
TTITLE9=Charley My Boy
TTITLE10=The Happy Wanderer
TTITLE11=Buona Sera (Good Night)
TTITLE12=A Good Time Was Had By All
TTITLE13=Ja-Da
TTITLE14=Here Pretty Kitty
TTITLE15=The Dummy Song
EXTD=YEAR: 2004
EXTT0=
EXTT1=
EXTT2=
EXTT3=
EXTT4=
EXTT5=
EXTT6=
EXTT7=
EXTT8=
EXTT9=
EXTT10=
EXTT11=
EXTT12=
EXTT13=
EXTT14=
EXTT15=
PLAYORDER=
